<mxfile host="app.diagrams.net" agent="Mozilla/5.0 (X11; Linux x86_64; rv:130.0) Gecko/20100101 Firefox/130.0" version="24.7.12">
  <diagram name="Page-1" id="9BLkqkG7mb9JynKjAAFL">
    <mxGraphModel dx="2678" dy="1086" grid="1" gridSize="10" guides="1" tooltips="1" connect="1" arrows="1" fold="1" page="1" pageScale="1" pageWidth="850" pageHeight="1100" math="0" shadow="0">
      <root>
        <mxCell id="0" />
        <mxCell id="1" parent="0" />
        <mxCell id="MNq03eyZml3s478U-IYy-9" value="" style="rounded=0;whiteSpace=wrap;html=1;" vertex="1" parent="1">
          <mxGeometry x="585" y="40" width="220" height="340" as="geometry" />
        </mxCell>
        <mxCell id="MNq03eyZml3s478U-IYy-8" value="" style="rounded=0;whiteSpace=wrap;html=1;" vertex="1" parent="1">
          <mxGeometry x="320" y="210" width="220" height="340" as="geometry" />
        </mxCell>
        <mxCell id="MNq03eyZml3s478U-IYy-3" value="" style="rounded=0;whiteSpace=wrap;html=1;" vertex="1" parent="1">
          <mxGeometry x="60" y="40" width="220" height="340" as="geometry" />
        </mxCell>
        <mxCell id="V1ilCo5aVBPqNSm8h3aI-3" value="" style="shape=cylinder3;whiteSpace=wrap;html=1;boundedLbl=1;backgroundOutline=1;size=15;" parent="1" vertex="1">
          <mxGeometry x="145" y="70" width="60" height="80" as="geometry" />
        </mxCell>
        <mxCell id="V1ilCo5aVBPqNSm8h3aI-4" value="" style="shape=process;whiteSpace=wrap;html=1;backgroundOutline=1;" parent="1" vertex="1">
          <mxGeometry x="115" y="190" width="120" height="60" as="geometry" />
        </mxCell>
        <mxCell id="V1ilCo5aVBPqNSm8h3aI-5" value="Cheops" style="text;html=1;align=center;verticalAlign=middle;whiteSpace=wrap;rounded=0;" parent="1" vertex="1">
          <mxGeometry x="145" y="205" width="60" height="30" as="geometry" />
        </mxCell>
        <mxCell id="V1ilCo5aVBPqNSm8h3aI-6" value="CouchDB" style="text;html=1;align=center;verticalAlign=middle;whiteSpace=wrap;rounded=0;" parent="1" vertex="1">
          <mxGeometry x="145" y="110" width="60" height="30" as="geometry" />
        </mxCell>
        <mxCell id="V1ilCo5aVBPqNSm8h3aI-8" value="" style="shape=cylinder3;whiteSpace=wrap;html=1;boundedLbl=1;backgroundOutline=1;size=15;" parent="1" vertex="1">
          <mxGeometry x="400" y="245" width="60" height="80" as="geometry" />
        </mxCell>
        <mxCell id="V1ilCo5aVBPqNSm8h3aI-9" value="" style="shape=process;whiteSpace=wrap;html=1;backgroundOutline=1;" parent="1" vertex="1">
          <mxGeometry x="370" y="365" width="120" height="60" as="geometry" />
        </mxCell>
        <mxCell id="V1ilCo5aVBPqNSm8h3aI-10" value="Cheops" style="text;html=1;align=center;verticalAlign=middle;whiteSpace=wrap;rounded=0;" parent="1" vertex="1">
          <mxGeometry x="400" y="380" width="60" height="30" as="geometry" />
        </mxCell>
        <mxCell id="V1ilCo5aVBPqNSm8h3aI-11" value="CouchDB" style="text;html=1;align=center;verticalAlign=middle;whiteSpace=wrap;rounded=0;" parent="1" vertex="1">
          <mxGeometry x="400" y="280" width="60" height="30" as="geometry" />
        </mxCell>
        <mxCell id="V1ilCo5aVBPqNSm8h3aI-13" value="" style="shape=cylinder3;whiteSpace=wrap;html=1;boundedLbl=1;backgroundOutline=1;size=15;" parent="1" vertex="1">
          <mxGeometry x="665" y="70" width="60" height="80" as="geometry" />
        </mxCell>
        <mxCell id="V1ilCo5aVBPqNSm8h3aI-14" value="" style="shape=process;whiteSpace=wrap;html=1;backgroundOutline=1;" parent="1" vertex="1">
          <mxGeometry x="635" y="190" width="120" height="60" as="geometry" />
        </mxCell>
        <mxCell id="V1ilCo5aVBPqNSm8h3aI-15" value="Cheops" style="text;html=1;align=center;verticalAlign=middle;whiteSpace=wrap;rounded=0;" parent="1" vertex="1">
          <mxGeometry x="665" y="205" width="60" height="30" as="geometry" />
        </mxCell>
        <mxCell id="V1ilCo5aVBPqNSm8h3aI-16" value="CouchDB" style="text;html=1;align=center;verticalAlign=middle;whiteSpace=wrap;rounded=0;" parent="1" vertex="1">
          <mxGeometry x="665" y="110" width="60" height="30" as="geometry" />
        </mxCell>
        <mxCell id="V1ilCo5aVBPqNSm8h3aI-19" value="" style="shape=flexArrow;endArrow=classic;startArrow=classic;html=1;rounded=0;entryX=0;entryY=0.5;entryDx=0;entryDy=0;exitX=1;exitY=0.5;exitDx=0;exitDy=0;exitPerimeter=0;entryPerimeter=0;" parent="1" source="V1ilCo5aVBPqNSm8h3aI-3" target="V1ilCo5aVBPqNSm8h3aI-13" edge="1">
          <mxGeometry width="100" height="100" relative="1" as="geometry">
            <mxPoint x="210" y="110" as="sourcePoint" />
            <mxPoint x="470" y="460" as="targetPoint" />
          </mxGeometry>
        </mxCell>
        <mxCell id="V1ilCo5aVBPqNSm8h3aI-20" value="" style="shape=flexArrow;endArrow=classic;startArrow=classic;html=1;rounded=0;exitX=1;exitY=0.5;exitDx=0;exitDy=0;entryX=0;entryY=0.5;entryDx=0;entryDy=0;entryPerimeter=0;exitPerimeter=0;" parent="1" source="V1ilCo5aVBPqNSm8h3aI-8" target="V1ilCo5aVBPqNSm8h3aI-13" edge="1">
          <mxGeometry width="100" height="100" relative="1" as="geometry">
            <mxPoint x="370" y="560" as="sourcePoint" />
            <mxPoint x="665" y="118" as="targetPoint" />
          </mxGeometry>
        </mxCell>
        <mxCell id="V1ilCo5aVBPqNSm8h3aI-21" value="" style="shape=flexArrow;endArrow=classic;startArrow=classic;html=1;rounded=0;entryX=0;entryY=0.5;entryDx=0;entryDy=0;exitX=1;exitY=0.5;exitDx=0;exitDy=0;exitPerimeter=0;entryPerimeter=0;" parent="1" target="V1ilCo5aVBPqNSm8h3aI-8" edge="1" source="V1ilCo5aVBPqNSm8h3aI-3">
          <mxGeometry width="100" height="100" relative="1" as="geometry">
            <mxPoint x="200" y="120" as="sourcePoint" />
            <mxPoint x="470" y="460" as="targetPoint" />
          </mxGeometry>
        </mxCell>
        <mxCell id="MNq03eyZml3s478U-IYy-4" value="" style="rhombus;whiteSpace=wrap;html=1;" vertex="1" parent="1">
          <mxGeometry x="135" y="285" width="80" height="80" as="geometry" />
        </mxCell>
        <mxCell id="MNq03eyZml3s478U-IYy-5" value="app" style="text;html=1;align=center;verticalAlign=middle;whiteSpace=wrap;rounded=0;" vertex="1" parent="1">
          <mxGeometry x="145" y="305" width="60" height="35" as="geometry" />
        </mxCell>
        <mxCell id="MNq03eyZml3s478U-IYy-10" value="" style="rhombus;whiteSpace=wrap;html=1;" vertex="1" parent="1">
          <mxGeometry x="390" y="460" width="80" height="80" as="geometry" />
        </mxCell>
        <mxCell id="MNq03eyZml3s478U-IYy-11" value="app" style="text;html=1;align=center;verticalAlign=middle;whiteSpace=wrap;rounded=0;" vertex="1" parent="1">
          <mxGeometry x="400" y="485" width="60" height="30" as="geometry" />
        </mxCell>
        <mxCell id="MNq03eyZml3s478U-IYy-12" value="" style="rhombus;whiteSpace=wrap;html=1;" vertex="1" parent="1">
          <mxGeometry x="655" y="285" width="80" height="80" as="geometry" />
        </mxCell>
        <mxCell id="MNq03eyZml3s478U-IYy-13" value="app" style="text;html=1;align=center;verticalAlign=middle;whiteSpace=wrap;rounded=0;" vertex="1" parent="1">
          <mxGeometry x="665" y="310" width="60" height="30" as="geometry" />
        </mxCell>
        <mxCell id="MNq03eyZml3s478U-IYy-14" value="" style="endArrow=classic;startArrow=classic;html=1;rounded=0;entryX=0.5;entryY=1;entryDx=0;entryDy=0;entryPerimeter=0;exitX=0.5;exitY=0;exitDx=0;exitDy=0;" edge="1" parent="1" source="V1ilCo5aVBPqNSm8h3aI-9" target="V1ilCo5aVBPqNSm8h3aI-8">
          <mxGeometry width="50" height="50" relative="1" as="geometry">
            <mxPoint x="400" y="580" as="sourcePoint" />
            <mxPoint x="450" y="530" as="targetPoint" />
          </mxGeometry>
        </mxCell>
        <mxCell id="MNq03eyZml3s478U-IYy-15" value="" style="endArrow=classic;startArrow=classic;html=1;rounded=0;entryX=0.5;entryY=1;entryDx=0;entryDy=0;exitX=0.5;exitY=0;exitDx=0;exitDy=0;" edge="1" parent="1" source="MNq03eyZml3s478U-IYy-10" target="V1ilCo5aVBPqNSm8h3aI-9">
          <mxGeometry width="50" height="50" relative="1" as="geometry">
            <mxPoint x="400" y="580" as="sourcePoint" />
            <mxPoint x="450" y="530" as="targetPoint" />
          </mxGeometry>
        </mxCell>
        <mxCell id="MNq03eyZml3s478U-IYy-16" value="" style="endArrow=classic;startArrow=classic;html=1;rounded=0;entryX=0.5;entryY=1;entryDx=0;entryDy=0;entryPerimeter=0;exitX=0.5;exitY=0;exitDx=0;exitDy=0;" edge="1" parent="1" source="V1ilCo5aVBPqNSm8h3aI-14" target="V1ilCo5aVBPqNSm8h3aI-13">
          <mxGeometry width="50" height="50" relative="1" as="geometry">
            <mxPoint x="400" y="580" as="sourcePoint" />
            <mxPoint x="450" y="530" as="targetPoint" />
          </mxGeometry>
        </mxCell>
        <mxCell id="MNq03eyZml3s478U-IYy-17" value="" style="endArrow=classic;startArrow=classic;html=1;rounded=0;entryX=0.5;entryY=1;entryDx=0;entryDy=0;exitX=0.5;exitY=0;exitDx=0;exitDy=0;" edge="1" parent="1" source="MNq03eyZml3s478U-IYy-12" target="V1ilCo5aVBPqNSm8h3aI-14">
          <mxGeometry width="50" height="50" relative="1" as="geometry">
            <mxPoint x="400" y="580" as="sourcePoint" />
            <mxPoint x="450" y="530" as="targetPoint" />
          </mxGeometry>
        </mxCell>
        <mxCell id="MNq03eyZml3s478U-IYy-18" value="" style="endArrow=classic;startArrow=classic;html=1;rounded=0;entryX=0.5;entryY=1;entryDx=0;entryDy=0;entryPerimeter=0;exitX=0.5;exitY=0;exitDx=0;exitDy=0;" edge="1" parent="1" source="V1ilCo5aVBPqNSm8h3aI-4" target="V1ilCo5aVBPqNSm8h3aI-3">
          <mxGeometry width="50" height="50" relative="1" as="geometry">
            <mxPoint x="400" y="580" as="sourcePoint" />
            <mxPoint x="450" y="530" as="targetPoint" />
          </mxGeometry>
        </mxCell>
        <mxCell id="MNq03eyZml3s478U-IYy-19" value="" style="endArrow=classic;startArrow=classic;html=1;rounded=0;entryX=0.5;entryY=1;entryDx=0;entryDy=0;exitX=0.5;exitY=0;exitDx=0;exitDy=0;" edge="1" parent="1" source="MNq03eyZml3s478U-IYy-4" target="V1ilCo5aVBPqNSm8h3aI-4">
          <mxGeometry width="50" height="50" relative="1" as="geometry">
            <mxPoint x="400" y="580" as="sourcePoint" />
            <mxPoint x="450" y="530" as="targetPoint" />
          </mxGeometry>
        </mxCell>
        <mxCell id="MNq03eyZml3s478U-IYy-24" value="" style="edgeStyle=orthogonalEdgeStyle;rounded=0;orthogonalLoop=1;jettySize=auto;html=1;" edge="1" parent="1" source="MNq03eyZml3s478U-IYy-21" target="V1ilCo5aVBPqNSm8h3aI-4">
          <mxGeometry relative="1" as="geometry">
            <mxPoint x="-35" y="220" as="targetPoint" />
          </mxGeometry>
        </mxCell>
        <mxCell id="MNq03eyZml3s478U-IYy-21" value="Actor" style="shape=umlActor;verticalLabelPosition=bottom;verticalAlign=top;html=1;outlineConnect=0;" vertex="1" parent="1">
          <mxGeometry x="-120" y="190" width="30" height="60" as="geometry" />
        </mxCell>
      </root>
    </mxGraphModel>
  </diagram>
</mxfile>
